<?xml version="1.0" encoding="UTF-8" standalone="no"?>
<!-- Generator: Adobe Illustrator 12.0.0, SVG Export Plug-In . SVG Version: 6.00 Build 51448)  -->
<svg
   xmlns:dc="http://purl.org/dc/elements/1.1/"
   xmlns:cc="http://web.resource.org/cc/"
   xmlns:rdf="http://www.w3.org/1999/02/22-rdf-syntax-ns#"
   xmlns:svg="http://www.w3.org/2000/svg"
   xmlns="http://www.w3.org/2000/svg"
   xmlns:xlink="http://www.w3.org/1999/xlink"
   xmlns:sodipodi="http://sodipodi.sourceforge.net/DTD/sodipodi-0.dtd"
   xmlns:inkscape="http://www.inkscape.org/namespaces/inkscape"
   version="1.0"
   id="Layer_1"
   width="400"
   height="400"
   viewBox="0 0 431.979 322.484"
   overflow="visible"
   enable-background="new 0 0 431.979 322.484"
   xml:space="preserve"
   sodipodi:version="0.32"
   inkscape:version="0.45.1"
   sodipodi:docname="Drupe_fruit_diagram.svg"
   inkscape:output_extension="org.inkscape.output.svg.inkscape"
   sodipodi:docbase="C:\Documents and Settings\Administrator\Desktop"><metadata
   id="metadata2630"><rdf:RDF><cc:Work
       rdf:about=""><dc:format>image/svg+xml</dc:format><dc:type
         rdf:resource="http://purl.org/dc/dcmitype/StillImage" /></cc:Work></rdf:RDF></metadata><defs
   id="defs2628"><linearGradient
     inkscape:collect="always"
     xlink:href="#XMLID_5_"
     id="linearGradient2655"
     gradientUnits="userSpaceOnUse"
     gradientTransform="translate(4.6066906,-25.797467)"
     x1="24.1528"
     y1="158.24271"
     x2="312.48389"
     y2="158.24271" /><linearGradient
     inkscape:collect="always"
     xlink:href="#XMLID_6_"
     id="linearGradient2657"
     gradientUnits="userSpaceOnUse"
     gradientTransform="translate(4.6066906,-25.797467)"
     x1="148.8716"
     y1="137.47659"
     x2="171.3455"
     y2="164.0367" /><linearGradient
     inkscape:collect="always"
     xlink:href="#XMLID_8_"
     id="linearGradient2659"
     gradientUnits="userSpaceOnUse"
     gradientTransform="translate(4.606691,-25.797467)"
     x1="151.4814"
     y1="191.82961"
     x2="142.3692"
     y2="157.4834" /></defs><sodipodi:namedview
   inkscape:window-height="677"
   inkscape:window-width="748"
   inkscape:pageshadow="2"
   inkscape:pageopacity="0.0"
   guidetolerance="10.0"
   gridtolerance="10.0"
   objecttolerance="10.0"
   borderopacity="1.0"
   bordercolor="#666666"
   pagecolor="#ffffff"
   id="base"
   width="400px"
   height="400px"
   inkscape:zoom="1.1721511"
   inkscape:cx="215.9895"
   inkscape:cy="201.40642"
   inkscape:window-x="36"
   inkscape:window-y="275"
   inkscape:current-layer="Layer_1" />



<linearGradient
   id="XMLID_5_"
   gradientUnits="userSpaceOnUse"
   x1="24.1528"
   y1="158.24271"
   x2="312.48389"
   y2="158.24271"
   gradientTransform="translate(4.6066906,-25.797467)">
	<stop
   offset="0.0056"
   style="stop-color:#FFBF00"
   id="stop2422" />
	<stop
   offset="1"
   style="stop-color:#FF4000"
   id="stop2424" />
</linearGradient>





<linearGradient
   id="XMLID_6_"
   gradientUnits="userSpaceOnUse"
   x1="148.8716"
   y1="137.47659"
   x2="171.3455"
   y2="164.0367"
   gradientTransform="translate(4.6066906,-25.797467)">
	<stop
   offset="0.0056"
   style="stop-color:#E8DBA6"
   id="stop2439" />
	<stop
   offset="1"
   style="stop-color:#D8C26A"
   id="stop2441" />
</linearGradient>






<linearGradient
   id="XMLID_8_"
   gradientUnits="userSpaceOnUse"
   x1="151.4814"
   y1="191.82961"
   x2="142.3692"
   y2="157.4834"
   gradientTransform="translate(4.606691,-25.797467)">
	<stop
   offset="0.0056"
   style="stop-color:#E8DBA6"
   id="stop2467" />
	<stop
   offset="0.4176"
   style="stop-color:#E6DCA3"
   id="stop2469" />
	<stop
   offset="0.6618"
   style="stop-color:#E1DD9B"
   id="stop2471" />
	<stop
   offset="0.8616"
   style="stop-color:#D8E18D"
   id="stop2473" />
	<stop
   offset="1"
   style="stop-color:#CEE47E"
   id="stop2475" />
</linearGradient>
<rect
   style="opacity:1;fill:#ffffff;fill-opacity:1;stroke:none;stroke-width:3;stroke-miterlimit:4;stroke-dasharray:none;stroke-opacity:1"
   id="rect2661"
   width="431.979"
   height="431.979"
   x="-2.7131075e-015"
   y="-54.747505" /><g
   id="g2632"
   transform="matrix(1.3915613,0,0,1.3915613,-23.842579,-24.345455)"><path
     style="fill:#eac428"
     id="path2417"
     d="M 292.94369,215.78153 C 248.79069,279.40453 159.29369,293.71253 93.046691,247.73653 C 26.800691,201.76353 8.8916906,112.91653 53.044691,49.294532 C 70.157691,24.634533 95.288691,6.2945331 123.85669,-2.8254669 C 135.89669,-6.6704669 149.99769,-11.167467 161.96169,-7.3854669 C 176.99669,-2.6314669 189.09969,8.5885331 205.24269,11.955533 C 229.31669,16.976533 247.35069,10.993533 267.65669,28.936533 C 285.25469,44.488532 299.02769,64.459532 307.46769,86.358532 C 323.90269,129.00153 319.12769,178.05053 292.94369,215.78153 z " /><path
     style="fill:#edd058"
     id="path2419"
     d="M 283.62469,204.31653 C 261.58369,223.69753 230.97969,233.93353 204.49669,245.01753 C 185.79169,252.84653 166.17469,260.92153 145.87569,263.01853 C 133.41469,264.30653 121.37369,258.86553 110.00469,254.32853 C 103.24269,251.62853 95.564691,248.85353 89.999691,244.01153 C 86.242691,240.74153 73.264691,232.71153 74.233691,227.04153 C 75.165691,221.58553 88.838691,216.29053 92.923691,213.39753 C 106.49169,203.78853 119.32269,191.60953 132.15169,181.06953 C 144.51269,170.91453 159.76869,171.85353 173.33869,165.69653 C 185.45069,160.20253 196.42469,151.65653 204.15369,140.77853 C 207.49669,136.07353 209.26569,132.34053 209.90969,126.75853 C 210.64569,120.38653 208.60069,113.00253 212.43369,107.36453 C 220.08169,96.117532 233.13569,87.897532 243.87569,79.688532 C 252.50069,73.095532 261.15169,66.477532 269.16069,59.187532 C 272.99969,55.692532 276.83169,50.602532 282.01369,49.362532 C 295.13469,59.696532 299.13869,72.571532 306.30669,87.184532 C 315.62069,106.17053 313.82569,127.41653 314.76969,148.05653 C 314.98769,152.80653 312.83169,157.26753 311.41569,161.72953 C 308.66069,170.40853 304.44369,178.64953 299.46469,186.25253 C 294.98869,193.08653 289.62469,199.03953 283.62469,204.31653 z " /><path
     style="fill:url(#linearGradient2655)"
     id="path2426"
     d="M 294.13269,213.45253 C 250.89569,277.70053 161.61169,293.28753 94.714691,248.26653 C 27.816691,203.24553 8.6366906,114.66553 51.874691,50.417532 C 68.632691,25.515533 93.497691,6.8175331 121.93169,-2.7114669 C 133.91569,-6.7284669 147.95169,-11.426467 159.96869,-7.8164669 C 175.06969,-3.2784669 187.33269,7.7665331 203.52369,10.903533 C 227.66569,15.578533 245.61169,9.3385331 266.17269,26.989533 C 283.99069,42.286532 298.04869,62.058532 306.80169,83.835532 C 323.84669,126.23753 319.77369,175.34953 294.13269,213.45253 z M 286.32669,188.63753 C 297.84469,177.38453 312.70969,159.99053 313.75269,143.40253 C 315.06269,122.58853 312.23669,104.06353 304.42769,84.635532 C 295.82769,63.239532 282.01569,43.810532 264.50769,28.781533 C 244.30469,11.437533 226.67069,17.568533 202.94769,12.975533 C 187.03969,9.8945331 174.98969,-0.95946694 160.15069,-5.4184669 C 131.75069,-13.948467 100.81269,10.703533 81.204691,27.815533 C 72.996691,34.979533 64.121691,43.022532 59.852691,53.287532 C 55.285691,64.268532 52.877691,76.013532 49.848691,87.539532 C 41.435691,119.54953 40.170691,146.83753 49.063691,178.94153 C 51.225691,186.74553 53.893691,194.41353 56.932691,201.73653 C 64.985691,221.14653 78.432691,234.35453 96.034691,246.20053 C 115.70669,259.44053 141.01169,261.09753 163.68969,256.32353 C 193.28969,250.09053 222.58369,237.48053 248.01769,221.21253 C 253.07569,217.97753 257.85069,214.01853 262.53469,210.27853 C 265.08569,208.24253 267.58469,206.12753 270.04469,203.95853 C 275.63069,199.03353 281.01269,193.82853 286.32669,188.63753 z " /><path
     style="opacity:0.37000002;fill:#ffdfa6"
     id="path2428"
     d="M 129.37569,56.874532 C 133.16769,60.895532 137.98469,65.454532 142.60369,65.216532 C 144.41769,54.737532 142.71869,45.003532 142.71869,34.504533 C 142.71869,28.513533 142.76469,22.517533 142.70069,16.526533 C 144.49069,25.828533 145.88269,47.527532 154.16869,53.864532 C 163.57669,61.058532 163.98869,35.165533 166.67969,29.509533 C 168.28269,34.782533 165.38569,41.771532 167.81369,46.813532 C 173.44769,58.512532 184.48269,24.567533 186.14969,21.217533 C 186.02869,26.645533 180.74369,67.987532 194.64669,63.651532 C 200.94569,61.688532 209.53069,39.359533 210.92169,33.356533 C 211.37669,40.197533 207.74269,47.118532 206.91069,53.847532 C 206.66669,55.821532 206.20769,61.096532 208.05869,62.497532 C 211.44969,65.063532 214.57769,59.639532 218.03369,58.657532 C 211.74569,65.793532 210.10069,79.056532 222.05369,79.178532 C 233.27369,79.293532 238.82069,73.728532 247.71569,68.667532 C 249.47369,67.668532 266.16069,58.095532 267.47169,60.147532 C 269.64469,63.557532 256.55069,68.501532 259.84969,74.361532 C 253.15869,79.846532 246.88069,86.252532 242.32869,93.682532 C 241.00869,95.837532 239.04769,103.56653 241.36369,105.58853 C 243.70569,107.63353 254.92769,103.60753 257.93169,102.99553 C 255.53969,103.48153 249.00369,104.83553 248.08369,107.62553 C 245.82269,114.47953 261.03269,111.78853 264.34969,111.36753 C 276.67069,109.80753 288.34769,105.31153 300.87369,104.50953 C 294.39169,107.29453 288.56869,108.75453 281.71969,110.61753 C 272.25469,113.19053 248.78769,117.14753 244.29769,126.71953 C 246.75769,126.87853 249.08469,126.10753 251.17969,126.69353 C 248.78969,130.92053 241.02069,135.95753 244.14169,142.07053 C 246.27969,146.25653 257.80369,150.82753 261.70769,153.50153 C 265.28769,155.95253 268.29969,158.46353 272.49869,159.78353 C 264.65269,159.78953 258.64469,157.92053 251.25369,155.31753 C 248.80969,154.45753 226.38869,142.91553 231.52469,154.98153 C 233.96269,160.70953 245.09769,163.73653 250.09069,166.92953 C 245.04469,163.71053 230.96169,159.17353 227.15269,166.64153 C 224.13369,172.57053 230.93969,178.22153 233.98569,182.24653 C 238.25869,187.89253 240.25069,195.63053 244.45969,200.96653 C 242.57069,198.57153 241.34669,195.79653 239.62069,193.28753 C 236.92269,189.36153 233.21669,186.58153 229.81569,183.33353 C 227.98069,181.58153 224.48869,175.68753 222.05869,175.12953 C 215.92869,173.72653 216.15669,183.03153 216.99869,187.16253 C 218.88169,196.40353 223.74569,205.02653 224.75369,214.50253 C 218.34969,207.49753 220.44569,195.08953 215.53369,187.12853 C 213.47069,183.78453 206.66469,180.34853 204.56169,184.46153 C 202.04369,189.39053 211.88669,203.77053 211.43669,210.25153 C 210.28269,204.03353 204.72669,184.53053 195.78569,188.13053 C 194.12469,199.41653 200.46269,212.91753 201.43069,223.95753 C 200.68769,215.47953 198.40369,205.43153 193.94969,198.08853 C 189.00169,189.92953 183.59769,194.09453 181.23769,202.28953 C 178.11969,213.11653 185.11869,224.25753 180.68569,235.35853 C 181.61769,224.47053 178.44369,213.97053 177.80769,203.19853 C 177.35069,195.46253 175.68769,191.44453 169.44869,199.74353 C 163.31569,207.90053 164.33069,220.21953 161.70969,229.98853 C 161.82069,227.37553 163.06469,198.17453 164.05969,197.98653 C 156.33369,199.44553 153.58669,209.94253 150.30869,215.97553 C 152.60269,211.45153 152.79669,203.74653 149.61669,199.50953 C 141.76769,201.12653 135.07069,218.94853 131.90969,225.30053 C 133.87869,216.32453 147.18169,192.81453 129.98269,189.51853 C 119.33769,187.47853 106.51569,200.09953 99.097691,206.20753 C 104.96069,201.37953 120.94269,186.72853 116.47769,177.72753 C 113.13169,170.98153 105.70069,174.39453 100.65669,176.21353 C 95.237691,178.16853 83.254691,180.75553 79.345691,184.94653 C 85.603691,178.23453 119.33669,169.45953 108.65269,155.35653 C 104.65769,150.08453 92.259691,152.67553 86.634691,153.27753 C 78.497691,154.14653 70.209691,155.94953 62.316691,157.92853 C 67.534691,153.66453 79.386691,151.69453 86.154691,150.20853 C 91.681691,148.99553 107.94269,147.60253 111.31969,141.95153 C 116.96569,132.50353 88.035691,138.81453 83.718691,137.77453 C 87.145691,133.19653 102.68869,135.22353 107.84569,132.36953 C 115.45869,128.15453 108.71869,124.08653 103.06769,121.84353 C 90.270691,116.76553 74.777691,118.67353 62.449691,112.99253 C 72.750691,112.60653 83.130691,114.46653 93.751691,113.56653 C 96.957691,113.29553 106.16569,114.19853 108.29669,110.59553 C 113.96069,101.02353 83.207691,95.557532 80.068691,92.263532 C 87.760691,93.887532 98.832691,96.220532 106.72469,96.060532 C 128.24569,95.621532 98.504691,75.144532 98.379691,68.477532 C 98.394691,69.256532 111.36469,75.872532 112.66669,76.520532 C 117.95269,79.153532 122.78269,81.462532 124.96569,74.540532 C 129.47269,60.250532 109.58869,44.929532 106.82269,31.702533 C 114.14569,35.460533 120.01969,47.125532 125.85869,53.113532 C 126.87569,54.159532 128.06469,55.485532 129.37569,56.874532 z " /><path
     style="fill:#ed9e2b"
     id="path2430"
     d="M 183.21469,68.501532 C 180.80169,80.083532 195.14769,72.229532 199.30169,72.353532 C 198.53669,76.735532 198.77169,81.556532 202.01769,84.814532 C 202.64269,85.442532 212.42569,89.332532 212.32669,89.970532 C 211.72169,93.842532 209.59069,96.753532 209.49569,101.06253 C 219.65469,98.738532 226.90169,88.955532 236.88369,86.144532 C 232.38369,93.231532 220.94769,99.254532 219.86869,108.19453 C 219.36869,112.35053 224.45469,114.18253 224.48569,117.72653 C 224.53869,123.56053 218.99369,121.00553 216.39369,125.30753 C 220.14669,130.59553 226.98069,127.42753 231.36469,128.89653 C 227.15669,133.28053 220.95469,134.96053 219.99369,141.82553 C 218.36169,141.99953 217.70669,143.17953 216.39369,143.64053 C 217.72869,147.57353 220.68369,149.95153 223.62669,152.67953 C 221.13469,154.25053 218.01269,153.16953 215.67969,154.36753 C 210.52069,157.01453 213.10369,156.90653 213.07569,161.11053 C 213.07069,161.88253 213.21669,165.08653 213.03769,165.55453 C 212.14069,167.89753 210.86669,166.63353 209.51269,168.58153 C 208.01269,170.74053 206.47969,173.39053 204.77969,175.58853 C 199.23569,170.66453 197.08069,182.78053 194.05369,185.72153 C 190.78669,183.01953 187.59469,184.46653 185.07269,187.06553 C 180.48269,181.35653 177.69069,193.08553 174.15369,194.02853 C 168.36969,195.57153 166.34569,190.70153 162.45369,199.16953 C 160.29669,195.26053 155.12069,197.30153 153.43469,200.68053 C 150.99669,196.47153 149.69469,187.71253 142.72569,193.38253 C 141.18169,194.63853 139.98469,185.99853 139.73269,185.57253 C 138.41969,183.34953 134.99269,181.06953 132.76069,179.84253 C 131.90669,180.40553 130.74969,180.33153 129.89369,180.91453 C 129.60969,180.26853 129.12069,179.56053 128.79869,178.86853 C 127.50269,179.46653 126.42369,178.81153 125.21669,180.20653 C 125.83769,177.28953 127.38769,174.29053 127.25169,171.32453 C 127.13669,168.82853 125.09469,166.74053 125.08269,164.18453 C 125.06169,160.02953 128.31269,158.57753 124.92869,154.38753 C 121.61769,150.29053 116.24669,152.84653 120.50769,147.47053 C 122.73769,144.65753 127.95269,144.51853 128.04169,140.46753 C 128.11369,137.21853 123.95569,134.67853 121.33269,134.17853 C 124.09069,125.26053 136.22669,123.24453 129.49769,112.39853 C 131.95769,110.06053 134.98969,100.98553 129.01669,100.73953 C 141.27669,101.22653 140.57269,89.722532 139.03169,81.487532 C 148.04769,88.251532 150.19669,76.152532 153.45369,71.717532 C 159.25969,78.017532 168.47869,74.353532 174.90469,72.274532 C 177.85069,71.319532 180.13969,68.608532 183.21469,68.501532 z " /><g
     transform="translate(4.6066906,-25.797467)"
     id="g2432">
	<path
   style="fill:#5a3d1c"
   id="path2434"
   d="M 166.056,104.305 C 161.604,106.191 156.887,102.497 153.078,104.257 C 150.536,105.432 150.677,108.878 148.368,110.483 C 143.277,114.02 140.805,109.642 139.454,118.441 C 139.218,119.984 140.462,122.624 139.766,123.97 C 139.13,125.198 136.736,125.347 135.876,126.607 C 133.059,130.731 134.658,132.838 133.507,137.208 C 132.86,139.661 129.919,140.711 129.259,143.041 C 128.74,144.869 130.445,146.426 130.052,148.31 C 129.475,151.073 126.371,153.543 126.256,156.294 C 126.132,159.227 128.816,160.442 129.327,163.334 C 130.106,167.753 126.209,170.817 125.608,175.017 C 125.151,178.225 127.478,179.575 129.138,182.252 C 121.909,184.599 122.549,188.21 126.131,193.151 C 129.317,197.548 130.315,203.348 133.645,207.549 C 134.761,208.956 142.949,213.387 142.98,213.581 C 145.315,228.26 169.885,219.286 176.228,212.942 C 178.223,210.944 179.215,208.097 181.181,206.422 C 182.852,205 186.563,204.244 188.649,203.019 C 192.289,200.884 198.34,198.231 196.863,193.083 C 206.488,193.003 206.313,187.254 204.707,180.265 C 206.602,179.457 212.393,177.098 212.787,174.8 C 213.426,171.083 205.762,171.289 207.35,166.567 C 208.719,162.504 216.013,164.401 216.491,159.626 C 216.901,155.514 203.883,147.844 212.689,145.279 C 210.992,140.397 206.984,138.262 204.037,134.334 C 199.556,128.359 204.502,123.308 201.919,117.6 C 199.719,112.745 192.939,113.109 193.609,106.601 C 193.948,103.3 184.32,105.625 183.127,105.436 C 179.227,104.822 177.653,101.616 174.016,100.551 C 170.127,99.413 168.994,103.06 166.056,104.305 z " />
</g><path
     style="fill:#dbd5ba"
     id="path2436"
     d="M 134.30469,153.06753 C 134.47469,153.34853 134.63769,153.59253 134.78069,153.77353 C 135.14769,154.23853 138.56369,156.51553 138.54169,156.34753 C 139.12569,160.74953 131.73969,159.11453 134.03769,164.91553 C 134.86969,167.01553 136.90969,167.68053 137.76369,169.52553 C 138.88869,171.96053 137.32169,174.95453 139.99269,175.87353 C 141.57369,176.41653 144.37269,174.13153 145.89869,173.73753 C 150.37469,172.58353 149.29969,174.68853 152.29869,176.70153 C 159.58869,181.59553 166.78669,172.55553 172.36969,168.63153 C 177.81469,164.80453 184.23169,163.43353 189.71369,159.30953 C 192.37569,157.30753 195.75869,155.80953 197.88369,153.22153 C 200.47569,150.06553 199.95369,147.27253 195.39669,149.05653 C 195.65969,147.60153 198.48469,143.74353 200.39469,143.46753 C 204.68069,142.84753 203.07469,146.27153 206.21269,142.55153 C 209.21569,138.99153 211.13869,133.20753 211.65969,128.65153 C 212.12969,124.54653 210.76469,125.64253 209.59369,122.55853 C 208.54769,119.80653 210.76269,117.45753 209.69569,114.44353 C 207.59769,108.51053 201.65669,106.64253 202.84169,99.413532 C 203.22069,97.100532 204.19769,95.122532 203.28769,92.740532 C 201.96669,89.283532 199.21469,90.640532 197.19369,88.312532 C 195.96769,86.898532 195.56569,84.276532 193.98869,83.249532 C 192.02069,81.967532 188.89669,83.200532 186.64769,82.603532 C 182.32469,81.457532 180.21569,76.603532 175.41169,78.208532 C 170.84969,79.732532 170.34269,82.585532 164.68369,81.795532 C 163.29169,81.601532 159.89069,80.090532 158.66969,80.768532 C 156.30169,82.081532 156.31669,86.393532 154.14169,87.715532 C 151.46469,89.341532 148.25969,86.893532 146.49369,90.604532 C 144.97169,93.803532 148.22969,97.335532 146.04769,100.54453 C 145.30669,101.63253 142.85769,100.63753 141.76569,102.07653 C 140.43369,103.83353 141.61969,105.50553 141.18369,107.37353 C 140.74469,109.24853 141.06969,110.92853 140.17769,112.71853 C 139.46969,114.14053 136.61969,114.49653 136.20469,115.75353 C 135.17269,118.86753 137.07469,122.16653 136.25269,125.38553 C 135.58769,127.98653 133.72069,129.51753 134.95569,132.40053 C 136.29769,135.53353 136.98269,138.90953 135.62269,142.15653 C 134.49669,144.84453 132.37069,146.44853 132.85869,149.68653 C 132.98169,150.51753 133.68869,152.04353 134.30469,153.06753 z " /><path
     style="fill:url(#linearGradient2657)"
     id="path2443"
     d="M 187.31969,149.40753 C 194.72069,141.78553 200.01269,132.64553 198.28069,121.42453 C 196.11469,107.39253 190.22369,85.774532 170.90769,89.505532 C 158.20669,91.959532 149.92269,111.31753 147.34469,122.43353 C 144.50169,134.69553 143.86569,148.51253 148.18669,160.45053 C 149.16769,163.16253 150.60869,167.32353 153.38669,168.42953 C 156.53869,169.68353 160.79169,167.64753 163.61969,166.42153 C 169.69769,163.78753 175.42369,159.85053 180.51569,155.63353 C 182.88069,153.67353 185.18869,151.60353 187.31969,149.40753 z " /><path
     style="fill:#d6ca9a"
     id="path2445"
     d="M 188.08569,149.79053 C 195.48669,142.16753 200.77869,133.02753 199.04669,121.80653 C 198.02369,115.17353 196.66169,108.42353 193.65469,102.36853 C 192.11569,99.270532 190.12669,96.300532 187.54869,93.968532 C 184.18169,90.922532 182.77569,92.861532 180.26569,95.731532 C 177.77269,98.579532 174.62769,101.23153 171.35569,103.19353 C 171.54669,105.04353 173.62469,105.84553 174.43069,107.34953 C 175.36569,109.09053 174.89969,111.63853 175.09569,113.59653 C 175.88669,121.51853 176.45369,129.68053 175.73969,137.63153 C 175.36269,141.83253 175.39769,146.07053 174.79969,150.25053 C 174.40569,153.00553 172.24469,157.27153 176.39669,157.67553 C 181.01869,158.12553 185.22869,152.73453 188.08569,149.79053 z " /><path
     style="fill:#8b5c29"
     id="path2447"
     d="M 137.61069,178.73253 C 141.18269,182.01153 144.06869,176.48253 147.63469,176.65253 C 147.01269,177.69053 147.20769,179.12353 146.88369,180.18753 C 147.46569,180.18353 148.19169,180.38253 148.76869,180.34053 C 148.55869,181.15953 147.23469,183.73053 147.41869,184.46453 C 148.11969,187.25553 149.73469,186.62253 150.92869,184.84653 C 151.47069,184.04053 149.30169,182.54953 151.40369,180.89053 C 153.01669,179.61753 155.38269,180.83053 157.37969,180.78653 C 162.64969,180.67053 164.43369,178.30753 168.15069,175.37553 C 169.05469,174.66153 169.77269,173.10353 171.15169,173.26553 C 172.01669,173.36653 174.33669,176.48353 173.87469,177.03653 C 175.33069,175.29853 178.02369,170.87853 173.59969,171.35353 C 177.84169,166.53853 183.42569,166.39753 188.91469,163.92953 C 192.86969,162.15253 208.39469,152.93553 200.99969,147.70453 C 202.90269,146.93353 204.01669,148.27653 205.64469,147.59653 C 209.42769,146.01753 210.49469,142.33853 211.35769,138.73753 C 212.37169,134.50853 214.70669,130.90653 215.72169,126.67653 C 215.61069,127.14053 224.13069,135.23353 218.41769,135.26253 C 217.61969,133.09453 218.13769,129.46553 214.79169,130.31053 C 218.71369,133.86553 210.13469,138.56653 210.74569,141.95653 C 211.27569,144.90353 216.92569,144.60453 217.20369,147.68953 C 217.48469,150.80353 212.48369,152.27053 210.16869,152.06553 C 211.31969,151.01353 210.65469,150.44553 211.08569,149.19553 C 206.95369,147.03353 205.81369,150.63553 207.16169,153.15253 C 207.98169,154.68153 210.06269,154.99253 210.43269,157.82853 C 210.74469,160.21053 210.08369,162.81253 208.23569,164.44153 C 206.53969,165.93553 202.24169,167.57753 200.93969,164.31453 C 200.10569,162.22553 205.83269,157.59353 200.08869,157.33153 C 200.87769,160.40053 196.94569,162.31853 196.93869,164.95353 C 196.92369,169.64953 199.93169,165.62853 201.86569,167.59953 C 206.08369,171.89753 192.37869,178.11053 189.27869,177.63353 C 189.41769,176.96053 189.00769,175.92253 189.13469,175.23453 C 188.43469,175.33953 187.37969,174.93253 186.68569,175.08053 C 187.14069,173.88753 187.48069,172.42553 187.58869,171.12253 C 184.65569,171.52753 182.47269,174.35053 181.62269,177.00153 C 189.16069,178.46753 180.49269,188.64353 178.06669,185.77753 C 176.22869,183.60553 182.39169,181.83853 177.34969,181.67553 C 174.84769,181.59453 166.18169,186.64153 164.68969,188.35853 C 166.28869,188.45653 172.58569,185.21053 173.31169,186.86953 C 173.96569,188.36253 170.31569,190.27353 169.30669,190.84953 C 165.82469,192.83853 160.50869,195.33253 156.40969,193.83553 C 155.32169,193.43853 149.62369,187.36953 149.83769,187.23153 C 149.21269,187.63453 148.99569,188.23053 148.81169,188.96153 C 148.33469,190.85153 151.61269,191.89053 150.81769,194.49753 C 148.09769,194.05753 147.21469,186.96553 144.76069,185.24453 C 143.00069,184.00953 133.49469,182.48953 138.12369,178.73053" /><path
     style="fill:#edcf8c;stroke:#d59758;stroke-width:0.3831"
     id="path2449"
     d="M 175.35169,100.27153 C 177.34069,98.956532 179.27869,97.591532 180.77669,95.680532 C 181.82569,94.341532 182.48269,92.600532 183.77469,91.500532 C 184.47569,92.481532 184.12069,95.722532 183.85669,97.007532 C 183.59569,98.272532 183.06169,99.525532 182.31069,100.58253 C 180.78169,102.73653 178.70669,104.31153 176.66069,105.94653 C 177.30569,107.37253 177.01169,108.56453 176.99869,110.10153 C 176.95669,115.13053 177.63369,120.34253 177.97569,125.36953 C 178.41069,131.76653 177.71569,137.85453 177.71469,144.21653 C 177.71469,147.23053 177.08469,150.17953 176.72769,153.15953 C 176.54969,154.64253 176.25869,156.17353 176.12469,157.64353 C 176.01369,158.86753 176.02169,159.40053 174.88569,160.12753 C 173.28969,161.15053 171.43669,161.96353 169.94369,163.11153 C 168.64169,164.11353 167.23269,164.92453 165.71669,165.60753 C 163.31369,166.69053 160.85469,167.86153 158.25069,168.29453 C 157.02169,168.49753 155.45969,168.52353 154.23569,168.29353 C 153.55369,168.16553 152.33669,168.12653 151.83669,167.60053 C 152.39469,166.91653 153.41669,166.45653 154.21669,165.99653 C 155.74369,165.11553 157.23569,164.16953 158.79569,163.30853 C 160.09369,162.59253 161.36169,161.86753 162.64169,161.11553 C 163.80369,160.43253 165.02969,159.86553 166.18869,159.17953 C 167.30169,158.52153 168.20769,157.63953 169.32369,157.00553 C 169.97069,157.50553 170.89869,157.86253 171.64469,158.19753 C 170.86669,157.89953 169.99469,157.61553 169.17069,157.35753 C 169.02869,154.59553 168.84069,151.84353 169.02469,149.04953 C 169.58169,140.58853 169.47069,132.10453 169.36869,123.63153 C 169.32769,120.23953 169.33869,116.84853 169.42169,113.45853 C 169.49569,110.47153 170.35569,107.62953 170.34569,104.69353 C 171.55069,105.07853 173.28369,105.40153 174.56969,105.44553 C 173.21069,104.69853 171.51369,104.88953 170.36669,103.86953 C 171.89869,102.49553 173.64369,101.40153 175.35169,100.27153 z " /><path
     style="fill:none;stroke:#5a3d1c;stroke-width:0.76620001"
     id="path2451"
     d="M 187.58569,149.66853 C 194.98569,142.04553 200.27869,132.90553 198.54669,121.68453 C 196.38069,107.65253 190.48969,86.034532 171.17369,89.765532 C 158.47269,92.219532 150.18869,111.57753 147.61069,122.69353 C 145.47269,131.91253 144.88369,141.82453 145.86269,151.23153 C 146.23769,154.83253 147.69269,158.17053 149.05669,161.49253 C 150.53969,165.10153 150.28469,168.01953 154.58169,168.80753 C 157.63069,169.36653 161.16469,167.85953 163.88569,166.68153 C 169.96469,164.04753 175.69069,160.10953 180.78169,155.89253 C 183.14769,153.93453 185.45469,151.86453 187.58569,149.66853 z " /><g
     transform="translate(4.6066906,-25.797467)"
     id="g2453">
	<path
   style="opacity:0.27000002;fill:#8e6d54"
   id="path2455"
   d="M 194.995,181.125 C 195.141,180.928 195.288,180.727 195.432,180.522 C 196.913,178.425 196.057,175.9 197.4,174.093 C 198.278,172.909 200.735,172.686 201.985,171.967 C 204.432,170.563 205.309,167.729 206.415,165.198 C 208.757,159.841 209.713,155.179 209.532,149.454 C 203.282,147.624 216.689,144.114 210.524,141.311 C 208.386,140.339 197.312,152.036 195.826,154.025 C 191.244,160.16 184.998,165.077 179.399,170.254 C 177.095,172.384 173.024,174.726 172.34,178.006 C 171.985,179.717 173.27,183.415 172.346,184.882 C 171.306,186.532 166.264,183.554 164.493,182.845 C 162.505,185.386 159.305,186.091 156.622,187.598 C 153.712,189.231 150.992,191.185 148.044,192.753 C 146.818,193.405 145.808,194.359 144.752,195.245 C 141.997,197.561 138.339,198.624 135.237,200.42 C 134.108,201.074 129.663,203.728 132.977,204.579 C 135.669,205.27 140.369,201.266 143.14,201.032 C 141.545,201.167 145.434,205.05 145.643,205.196 C 147.349,206.381 150.601,206.842 152.587,206.691 C 157.743,206.301 160.274,202.459 164.006,199.587 C 167.152,197.168 171.146,194.819 174.888,193.431 C 182.815,190.492 189.847,188.003 194.995,181.125 z " />
	<path
   style="fill:#b78046"
   id="path2457"
   d="M 182.646,175.392 C 186.602,171.261 190.055,166.48 192.028,161.074 C 193.076,158.202 196.004,148.373 193.271,145.949 C 189.158,149.202 189.328,155.743 184.873,159.324 C 183.228,160.646 181.526,162.061 179.819,163.267 C 178.034,164.529 175.848,165.157 174.142,166.533 C 172.527,167.836 172.537,169.361 172.334,171.401 C 171.919,175.582 171.856,180.099 172.124,184.321 C 172.174,185.108 176.396,181.156 176.674,180.887 C 178.619,179.004 180.763,177.358 182.646,175.392 z " />
	<linearGradient
   y2="147.50529"
   x2="175.9198"
   y1="165.20171"
   x1="188.7583"
   gradientUnits="userSpaceOnUse"
   id="XMLID_7_">
		<stop
   id="stop2460"
   style="stop-color:#B78046"
   offset="0.0056" />
		<stop
   id="stop2462"
   style="stop-color:#5A3D1C"
   offset="1" />
	</linearGradient>
	<path
   style="fill:url(#XMLID_7_);stroke:#5a3d1c;stroke-width:0.76620001"
   id="path2464"
   d="M 176.035,162.958 C 178.681,160.853 181.908,159.54 184.351,157.154 C 188.138,153.458 191.729,148.887 192.917,143.62 C 193.171,142.496 192.527,141.349 193.255,140.44 C 195.155,138.067 200.184,137.048 202,139.999 C 203.234,142.005 201.889,145.904 201.341,147.912 C 201.034,149.036 195.533,163.371 195.1,163.118 C 190.247,160.283 182.692,161.403 178.025,164.08 C 170.149,168.597 173.797,177.818 171.617,185.047 C 172.877,181.238 172.8,175.812 172.85,171.77 C 172.891,168.485 172.581,166.116 175.108,163.755 C 175.408,163.476 175.717,163.211 176.035,162.958 z " />
</g><path
     style="fill:url(#linearGradient2659);stroke:#d59758;stroke-width:0.3831"
     id="path2477"
     d="M 151.57769,130.54353 C 151.75769,130.93653 151.90269,131.32453 151.99269,131.60653 C 152.98869,134.72353 152.99869,137.88653 152.56469,141.09553 C 151.83269,146.51853 150.89669,151.88653 152.39969,157.25853 C 152.99069,159.36953 153.58269,161.67353 154.69869,163.57953 C 155.02069,164.13053 156.16869,165.23953 155.69269,165.89053 C 155.24569,166.50153 153.31869,166.68453 152.68469,166.39753 C 152.03369,166.10153 151.73069,165.47153 151.43969,164.82853 C 150.79469,163.40453 150.24069,161.88853 149.71269,160.41853 C 148.94569,158.28153 148.32869,155.94853 147.79969,153.73953 C 147.24869,151.43753 147.10569,149.22853 146.91669,146.88453 C 146.71269,144.35553 146.41469,141.80753 146.74769,139.27653 C 147.07269,136.80653 147.42669,134.26353 148.46669,131.97553 C 148.74969,131.35353 149.25669,129.33153 149.87569,129.03653 C 150.72069,128.63153 151.30069,129.94053 151.57769,130.54353 z " /></g>
















</svg>